<svg xmlns="http://www.w3.org/2000/svg" viewBox="0 0 240 120" role="img" aria-label="Vintage American flag emblem">
  <defs>
    <linearGradient id="paper" x1="0" y1="0" x2="0" y2="1">
      <stop offset="0%" stop-color="#f2e5cd"/>
      <stop offset="100%" stop-color="#e9d8b7"/>
    </linearGradient>
  </defs>
  <rect x="2" y="2" width="236" height="116" rx="10" fill="url(#paper)" stroke="#7a5d35" stroke-width="3"/>
  <g opacity="0.86">
    <rect x="16" y="18" width="208" height="84" fill="#f5ead5" stroke="#8a6a3d" stroke-width="2"/>
    <rect x="16" y="18" width="208" height="6.45" fill="#8f2f3d"/>
    <rect x="16" y="30.9" width="208" height="6.45" fill="#8f2f3d"/>
    <rect x="16" y="43.8" width="208" height="6.45" fill="#8f2f3d"/>
    <rect x="16" y="56.7" width="208" height="6.45" fill="#8f2f3d"/>
    <rect x="16" y="69.6" width="208" height="6.45" fill="#8f2f3d"/>
    <rect x="16" y="82.5" width="208" height="6.45" fill="#8f2f3d"/>
    <rect x="16" y="95.4" width="208" height="6.45" fill="#8f2f3d"/>
    <rect x="16" y="18" width="94" height="45.3" fill="#324f76"/>
    <g fill="#f3e7ce">
      <circle cx="25" cy="25.5" r="2.1"/>
      <circle cx="37" cy="25.5" r="2.1"/>
      <circle cx="49" cy="25.5" r="2.1"/>
      <circle cx="61" cy="25.5" r="2.1"/>
      <circle cx="73" cy="25.5" r="2.1"/>
      <circle cx="85" cy="25.5" r="2.1"/>
      <circle cx="31" cy="33.2" r="2.1"/>
      <circle cx="43" cy="33.2" r="2.1"/>
      <circle cx="55" cy="33.2" r="2.1"/>
      <circle cx="67" cy="33.2" r="2.1"/>
      <circle cx="79" cy="33.2" r="2.1"/>
      <circle cx="25" cy="40.9" r="2.1"/>
      <circle cx="37" cy="40.9" r="2.1"/>
      <circle cx="49" cy="40.9" r="2.1"/>
      <circle cx="61" cy="40.9" r="2.1"/>
      <circle cx="73" cy="40.9" r="2.1"/>
      <circle cx="85" cy="40.9" r="2.1"/>
      <circle cx="31" cy="48.6" r="2.1"/>
      <circle cx="43" cy="48.6" r="2.1"/>
      <circle cx="55" cy="48.6" r="2.1"/>
      <circle cx="67" cy="48.6" r="2.1"/>
      <circle cx="79" cy="48.6" r="2.1"/>
      <circle cx="25" cy="56.3" r="2.1"/>
      <circle cx="37" cy="56.3" r="2.1"/>
      <circle cx="49" cy="56.3" r="2.1"/>
      <circle cx="61" cy="56.3" r="2.1"/>
      <circle cx="73" cy="56.3" r="2.1"/>
      <circle cx="85" cy="56.3" r="2.1"/>
    </g>
  </g>
</svg>
